<svg width="12" height="16" viewBox="0 0 12 16" fill="none" xmlns="http://www.w3.org/2000/svg">
<path d="M9.33336 12.1749V7.1666C9.33336 6.70827 8.95836 6.33327 8.50003 6.33327C8.04169 6.33327 7.66669 6.70827 7.66669 7.1666L7.66669 12.1749L6.17503 12.1749C5.80003 12.1749 5.61669 12.6249 5.88336 12.8833L8.20836 15.1999C8.37503 15.3583 8.63336 15.3583 8.80003 15.1999L11.125 12.8833C11.3917 12.6249 11.2 12.1749 10.8334 12.1749H9.33336ZM3.20836 0.791602L0.883359 3.1166C0.616692 3.37493 0.800025 3.82493 1.17503 3.82493L2.66669 3.82493L2.66669 8.83327C2.66669 9.2916 3.04169 9.6666 3.50003 9.6666C3.95836 9.6666 4.33336 9.2916 4.33336 8.83327L4.33336 3.82493L5.82503 3.82493C6.20003 3.82493 6.38336 3.37493 6.11669 3.1166L3.79169 0.791602C3.63336 0.633268 3.36669 0.633268 3.20836 0.791602Z" fill="white"/>
</svg>
