<svg width="18" height="18" viewBox="0 0 18 18" fill="none" xmlns="http://www.w3.org/2000/svg">
<path d="M12.4999 11.4996H11.7099L11.4299 11.2296C12.6299 9.82965 13.2499 7.91965 12.9099 5.88965C12.4399 3.10965 10.1199 0.889649 7.31989 0.549649C3.08989 0.029649 -0.470107 3.58965 0.0498932 7.81965C0.389893 10.6196 2.60989 12.9396 5.38989 13.4096C7.41989 13.7496 9.32989 13.1296 10.7299 11.9296L10.9999 12.2096V12.9996L15.2499 17.2496C15.6599 17.6596 16.3299 17.6596 16.7399 17.2496C17.1499 16.8396 17.1499 16.1696 16.7399 15.7596L12.4999 11.4996ZM6.49989 11.4996C4.00989 11.4996 1.99989 9.48965 1.99989 6.99965C1.99989 4.50965 4.00989 2.49965 6.49989 2.49965C8.98989 2.49965 10.9999 4.50965 10.9999 6.99965C10.9999 9.48965 8.98989 11.4996 6.49989 11.4996Z" fill="#81C784"/>
</svg>
